<svg xmlns="http://www.w3.org/2000/svg" viewBox="0 0 500 500" preserveAspectRatio="xMidYMid meet"
   style="transform: translate3d(0px, 0px, 0px); content-visibility: visible;">
   <g clip-path="url(#__lottie_element_5)" id="g290">
      <g transform="matrix(1.5,0,0,1.5,268.46201,255.35001)" style="display:block" opacity="1" id="g6">
         <g id="g4" style="opacity:1">
            <path
               d="M 86.633003,32.453999 C 80.405998,-0.78500003 102.141,-15.827 101.707,-30.278999 c -0.522,-17.383 -10.208311,-68.681031 -50.155309,-60.97503 -9.120999,1.760002 -16.786522,13.604076 -23.370521,6.427074 l -13.3776,-8.419907 C -4.3044304,-114.01286 -27.9,-105.783 -45.291,-89.649002 c -2.943001,2.730003 -5.046002,6.909004 -6.546002,11.617004 -6.025997,18.905999 -30.889856,19.570878 -47.073862,30.521878 -10.942996,7.403997 -6.262136,32.92112 -1.123136,44.2711199 5.969997,13.1850002 -2.23734,33.2256921 -0.57234,45.0566931 3.806002,27.041001 14.642221,56.248906 51.368219,54.177907 36.725999,-2.070999 49.95661377,14.46783 74.202615,8.77083 24.245998,-5.696997 67.895507,-39.073429 61.668509,-72.312431 z"
               id="path2" style="fill:#e6f1fe" fill-opacity="1" />

         </g>
      </g>
      <g style="display:block" opacity="inherit" id="g32">
         <g transform="matrix(0,0,0,0,267.763,140.02)" id="g12" style="opacity:1">
            <g id="g10" style="opacity:1">
               <path
                  d="m 7.461,1 c 0,0 -14.922,0 -14.922,0 -0.5519995,0 -1.0000004,-0.44700003 -1.0000004,-1 0,-0.55299997 0.4480009,-1 1.0000004,-1 0,0 14.922,0 14.922,0 0.5519995,0 1.0000004,0.44700003 1.0000004,1 0,0.55299997 -0.4480009,1 -1.0000004,1 z"
                  id="path8" style="fill:#ffffff" fill-opacity="1" />

            </g>
         </g>
         <g transform="matrix(0,0,0,0,275.073,161.44501)" id="g18" style="opacity:1">
            <g id="g16" style="opacity:1">
               <path
                  d="m 3.793,1 c 0,0 -7.586,0 -7.586,0 -0.5519998,0 -1.0000002,-0.44700003 -1.0000002,-1 0,-0.55299997 0.4480004,-1 1.0000002,-1 0,0 7.586,0 7.586,0 0.5519998,0 1.0000002,0.44700003 1.0000002,1 0,0.55299997 -0.4480004,1 -1.0000002,1 z"
                  id="path14" style="fill:#ffffff" fill-opacity="1" />

            </g>
         </g>
         <g transform="matrix(0,0,0,0,278.853,150.828)" id="g24" style="opacity:1">
            <g id="g22" style="opacity:1">
               <path
                  d="m 20.646,1 c 0,0 -41.292,0 -41.292,0 -0.552,0 -1,-0.44700003 -1,-1 0,-0.55299997 0.448,-1 1,-1 0,0 41.292,0 41.292,0 0.552,0 1,0.44700003 1,1 0,0.55299997 -0.448,1 -1,1 z"
                  id="path20" style="fill:#ffffff" fill-opacity="1" />

            </g>
         </g>
         <g transform="matrix(0.82857186,0,0,0.82857186,292.51047,140.02)" id="g30" style="opacity:1">
            <g id="g28" style="opacity:1">
               <path
                  d="m 4.105,1 c 0,0 -8.21,0 -8.21,0 -0.5520001,0 -1,-0.44700003 -1,-1 0,-0.55299997 0.4479999,-1 1,-1 0,0 8.21,0 8.21,0 0.5520001,0 1,0.44700003 1,1 0,0.55299997 -0.4479999,1 -1,1 z"
                  id="path26" style="fill:#ffffff" fill-opacity="1" />
            </g>
         </g>
      </g>
      <g style="display:block;opacity:1" id="g76">
         <g transform="matrix(0.64386553,-0.19681972,0.19681972,0.64386553,14.782867,102.38436)" id="g46"
            style="opacity:1">
            <g transform="matrix(1.5,0,0,1.5,874.53949,-95.357529)" id="g38" style="opacity:1">
               <g id="g36" style="opacity:1">
                  <path
                     d="m -467.694,186.755 c 0,0 -3.815,1.497 -3.815,1.497 -0.39301,-0.35001 -0.805,-0.685 -1.24399,-0.996 -0.60602,-0.429 -1.23901,-0.786 -1.884,-1.10801 0,0 0.13498,-3.86 0.13498,-3.86 0.021,-0.60899 -0.39298,-1.14599 -0.987,-1.28099 0,0 -2.995,-0.68 -2.995,-0.68 -0.59399,-0.135 -1.199,0.17199 -1.44299,0.73001 0,0 -1.57599,3.60798 -1.57599,3.60798 -1.33502,0.049 -2.65402,0.28601 -3.92401,0.70002 0,0 -2.47299,-2.653 -2.47299,-2.653 -0.41501,-0.44501 -1.08902,-0.53202 -1.60401,-0.20801 0,0 -2.599,1.63701 -2.599,1.63701 -0.51501,0.32499 -0.72601,0.96998 -0.50399,1.53698 0,0 1.32199,3.37101 1.32199,3.37101 -0.478,0.5 -0.93698,1.027 -1.348,1.608 -0.44201,0.625 -0.80999,1.278 -1.138,1.944 0,0 -3.30301,-0.11501 -3.30301,-0.11501 -0.609,-0.021 -1.14599,0.39301 -1.281,0.98702 0,0 -0.681,2.99499 -0.681,2.99499 -0.13498,0.594 0.172,1.2 0.73001,1.444 0,0 3.078,1.343 3.078,1.343 0.041,1.53901 0.32001,3.06501 0.845,4.514 0,0 -2.268,2.115 -2.268,2.115 -0.44501,0.415 -0.53299,1.08901 -0.20801,1.60401 0,0 1.638,2.599 1.638,2.599 0.32501,0.515 0.969,0.72699 1.53601,0.50499 0,0 3.056,-1.19899 3.056,-1.19899 0.44,0.403 0.89801,0.791 1.39701,1.14498 0.78799,0.55701 1.61398,1.02001 2.46398,1.39701 0,0 -0.109,3.123 -0.109,3.123 -0.021,0.60901 0.393,1.14599 0.987,1.281 0,0 2.99502,0.681 2.99502,0.681 0.594,0.135 1.19998,-0.17199 1.444,-0.73001 0,0 1.38498,-3.17299 1.38498,-3.17299 1.465,-0.097 2.909,-0.41999 4.28101,-0.956 0,0 2.306,2.47399 2.306,2.47399 0.415,0.44501 1.08899,0.53301 1.604,0.20801 0,0 2.599,-1.638 2.599,-1.638 0.51501,-0.324 0.72699,-0.96901 0.505,-1.53599 0,0 -1.38,-3.51702 -1.38,-3.51702 0.27701,-0.32599 0.547,-0.65999 0.79901,-1.01599 0.54398,-0.769 0.996,-1.575 1.36798,-2.40401 0,0 3.68002,0.129 3.68002,0.129 0.60898,0.021 1.146,-0.39299 1.28098,-0.987 0,0 0.68002,-2.99499 0.68002,-2.99499 0.13498,-0.594 -0.17202,-1.2 -0.73001,-1.444 0,0 -3.70599,-1.618 -3.70599,-1.618 -0.097,-1.26201 -0.37,-2.506 -0.79401,-3.70199 0,0 2.845,-2.65201 2.845,-2.65201 0.44501,-0.415 0.53299,-1.08901 0.20801,-1.60401 0,0 -1.63702,-2.599 -1.63702,-2.599 -0.32498,-0.51499 -0.97,-0.72699 -1.53699,-0.50499 z m -10.50501,16.57599 c -2.449,1.543 -5.68499,0.80802 -7.22799,-1.64099 -1.543,-2.449 -0.80799,-5.685 1.64099,-7.22799 2.449,-1.543 5.685,-0.808 7.228,1.64099 1.543,2.449 0.80801,5.68499 -1.641,7.22799 z"
                     id="path34" style="fill:#ffffff" fill-opacity="1" />

               </g>
            </g>
            <g transform="matrix(1.5,0,0,1.5,874.53949,-95.357529)" id="g44" style="opacity:1">
               <g id="g42" style="opacity:1">
                  <path
                     d="m -482.61401,217.55099 c -0.129,0 -0.25998,-0.014 -0.39099,-0.044 0,0 -2.99601,-0.681 -2.99601,-0.681 -0.82699,-0.188 -1.405,-0.938 -1.375,-1.78601 0,0 0.097,-2.78799 0.097,-2.78799 -0.78601,-0.37 -1.539,-0.80901 -2.24201,-1.30699 -0.39599,-0.28002 -0.78701,-0.593 -1.21399,-0.97402 0,0 -2.76702,1.08701 -2.76702,1.08701 -0.78898,0.309 -1.68998,0.012 -2.142,-0.704 0,0 -1.638,-2.6 -1.638,-2.6 -0.452,-0.718 -0.32999,-1.65801 0.29101,-2.23599 0,0 2.02899,-1.892 2.02899,-1.892 -0.43499,-1.29302 -0.68899,-2.649 -0.75399,-4.039 0,0 -2.79001,-1.21801 -2.79001,-1.21801 -0.77698,-0.33799 -1.20499,-1.184 -1.017,-2.011 0,0 0.68002,-2.996 0.68002,-2.996 0.18799,-0.826 0.94098,-1.396 1.78498,-1.37601 0,0 2.98501,0.10401 2.98501,0.10401 0.33301,-0.648 0.672,-1.213 1.03101,-1.722 0.33298,-0.471 0.712,-0.93 1.17599,-1.431 0,0 -1.207,-3.07601 -1.207,-3.07601 -0.31,-0.78898 -0.014,-1.69099 0.70401,-2.142 0,0 2.59799,-1.638 2.59799,-1.638 0.71799,-0.45199 1.659,-0.32998 2.237,0.29001 0,0 2.258,2.422 2.258,2.422 1.11899,-0.33901 2.27399,-0.54401 3.44,-0.612 0,0 1.45099,-3.32401 1.45099,-3.32401 0.33801,-0.77699 1.186,-1.20599 2.01102,-1.01699 0,0 2.996,0.68 2.996,0.68 0.827,0.18799 1.40601,0.93799 1.37598,1.786 0,0 -0.124,3.54201 -0.124,3.54201 0.62601,0.32499 1.17301,0.653 1.66202,1 0.34699,0.24499 0.694,0.517 1.05499,0.82798 0,0 3.53299,-1.38699 3.53299,-1.38699 0.79102,-0.309 1.69101,-0.013 2.142,0.704 0,0 1.63703,2.6 1.63703,2.6 0.45199,0.71601 0.32998,1.65599 -0.29001,2.235 0,0 -2.607,2.43199 -2.607,2.43199 0.35098,1.05901 0.581,2.14 0.68698,3.21801 0,0 3.435,1.5 3.435,1.5 0.776,0.33799 1.20502,1.184 1.017,2.011 0,0 -0.681,2.996 -0.681,2.996 -0.18799,0.827 -0.92798,1.385 -1.78598,1.37599 0,0 -3.34702,-0.11699 -3.34702,-0.11699 -0.367,0.77001 -0.79498,1.50299 -1.27398,2.181 -0.202,0.284 -0.41501,0.556 -0.63401,0.821 0,0 1.271,3.23999 1.271,3.23999 0.31,0.789 0.014,1.69101 -0.70401,2.14202 0,0 -2.59799,1.638 -2.59799,1.638 -0.72,0.45099 -1.66001,0.32798 -2.237,-0.29001 0,0 -2.077,-2.22901 -2.077,-2.22901 -1.23001,0.44901 -2.509,0.73401 -3.807,0.84601 0,0 -1.26401,2.89701 -1.26401,2.89701 -0.28598,0.65399 -0.931,1.06098 -1.621,1.06098 z M -490.521,208.814 c 0,0 0.22901,0.21099 0.22901,0.21099 0.488,0.44701 0.918,0.79801 1.35,1.10401 0.741,0.524 1.54099,0.979 2.37699,1.35 0,0 0.30801,0.13601 0.30801,0.13601 0,0 -0.12002,3.45999 -0.12002,3.45999 -0.013,0.36799 0.23901,0.695 0.59802,0.77701 0,0 2.99499,0.67999 2.99499,0.67999 0.35901,0.081 0.72699,-0.105 0.875,-0.442 0,0 1.50598,-3.45099 1.50598,-3.45099 0,0 0.30402,-0.021 0.30402,-0.021 1.414,-0.093 2.80399,-0.403 4.13199,-0.92299 0,0 0.31601,-0.123 0.31601,-0.123 0,0 2.53799,2.722 2.53799,2.722 0.25101,0.26999 0.66001,0.321 0.97202,0.12599 0,0 2.599,-1.638 2.599,-1.638 0.31198,-0.196 0.44,-0.58699 0.306,-0.92999 0,0 -1.49002,-3.795 -1.49002,-3.795 0,0 0.194,-0.22901 0.194,-0.22901 0.268,-0.31399 0.52902,-0.63701 0.772,-0.981 0.50501,-0.714 0.95001,-1.494 1.32101,-2.319 0,0 0.137,-0.30701 0.137,-0.30701 0,0 4.01501,0.14 4.01501,0.14 0.34299,0.033 0.69498,-0.239 0.776,-0.59698 0,0 0.68,-2.99501 0.68,-2.99501 0.081,-0.359 -0.10401,-0.728 -0.44101,-0.875 0,0 -3.983,-1.739 -3.983,-1.739 0,0 -0.023,-0.299 -0.023,-0.299 -0.092,-1.196 -0.34799,-2.399 -0.76498,-3.574 0,0 -0.11002,-0.308 -0.11002,-0.308 0,0 3.08402,-2.87599 3.08402,-2.87599 0.26901,-0.25202 0.32199,-0.66101 0.12601,-0.972 0,0 -1.637,-2.59902 -1.637,-2.59902 -0.19601,-0.31099 -0.58902,-0.44099 -0.931,-0.306 0,0 -4.10101,1.608 -4.10101,1.608 0,0 -0.23001,-0.20298 -0.23001,-0.20298 -0.41699,-0.37201 -0.81,-0.68701 -1.19998,-0.96201 -0.521,-0.36799 -1.11502,-0.71699 -1.818,-1.06801 0,0 -0.28701,-0.14399 -0.28701,-0.14399 0,0 0.14599,-4.181 0.14599,-4.181 0.013,-0.368 -0.23999,-0.695 -0.599,-0.777 0,0 -2.99499,-0.679 -2.99499,-0.679 -0.358,-0.08 -0.72699,0.10401 -0.87399,0.441 0,0 -1.70102,3.897 -1.70102,3.897 0,0 -0.314,0.012 -0.314,0.012 -1.28699,0.048 -2.561,0.27501 -3.78799,0.67501 0,0 -0.30301,0.099 -0.30301,0.099 0,0 -2.69098,-2.88601 -2.69098,-2.88601 -0.25101,-0.26799 -0.66,-0.321 -0.97202,-0.12599 0,0 -2.59799,1.638 -2.59799,1.638 -0.311,0.196 -0.44,0.58699 -0.306,0.93 0,0 1.439,3.66799 1.439,3.66799 0,0 -0.22101,0.23201 -0.22101,0.23201 -0.53198,0.557 -0.94599,1.049 -1.301,1.551 -0.38098,0.539 -0.74099,1.15201 -1.09799,1.87601 0,0 -0.143,0.28898 -0.143,0.28898 0,0 -3.62601,-0.125 -3.62601,-0.125 -0.36499,-0.034 -0.694,0.23801 -0.776,0.597 0,0 -0.67999,2.99501 -0.67999,2.99501 -0.082,0.36 0.10501,0.728 0.44201,0.875 0,0 3.37,1.471 3.37,1.471 0,0 0.009,0.318 0.009,0.318 0.039,1.50699 0.31299,2.973 0.814,4.35801 0,0 0.113,0.30999 0.113,0.30999 0,0 -2.51001,2.33899 -2.51001,2.33899 -0.26999,0.25202 -0.32199,0.66101 -0.126,0.972 0,0 1.638,2.59902 1.638,2.59902 0.19601,0.31099 0.58801,0.44198 0.931,0.306 0,0 3.346,-1.31201 3.346,-1.31201 z m 9.54001,-4.174 c -0.42602,0 -0.85602,-0.048 -1.28201,-0.145 -1.496,-0.33899 -2.76999,-1.24 -3.58701,-2.538 -1.68798,-2.679 -0.88098,-6.22999 1.797,-7.918 2.67801,-1.68899 6.23102,-0.882 7.918,1.797 1.68802,2.679 0.88202,6.22999 -1.797,7.918 -0.92798,0.585 -1.979,0.886 -3.04898,0.886 z M -481,194.15601 c -0.86401,0 -1.737,0.23599 -2.51999,0.72898 -2.212,1.39301 -2.87701,4.32702 -1.48401,6.53901 1.39301,2.21099 4.32801,2.878 6.539,1.484 2.21201,-1.393 2.879,-4.32701 1.48499,-6.539 -0.89999,-1.429 -2.444,-2.21299 -4.01999,-2.21299 z"
                     id="path40" style="fill:#ff6b0a" fill-opacity="1" />

               </g>
            </g>
         </g>
         <g transform="matrix(0.77780437,0.23776276,-0.23776276,0.77780437,103.93917,32.46521)" id="g60"
            style="opacity:1">
            <g transform="matrix(1.5,0,0,1.5,874.54004,-95.359009)" id="g52" style="opacity:1">
               <g id="g50" style="opacity:1">
                  <path
                     d="m -474.31,262.384 c 0,0 -2.767,-0.52801 -2.767,-0.52801 -0.1,-0.34699 -0.21701,-0.693 -0.359,-1.03498 -0.19501,-0.471 -0.43299,-0.91101 -0.69001,-1.33401 0,0 1.49301,-2.19501 1.49301,-2.19501 0.23499,-0.34598 0.19101,-0.811 -0.10501,-1.10699 0,0 -1.492,-1.493 -1.492,-1.493 -0.29599,-0.296 -0.76099,-0.339 -1.107,-0.104 0,0 -2.238,1.52101 -2.238,1.52101 -0.79398,-0.46001 -1.64798,-0.80701 -2.538,-1.03101 0,0 -0.46698,-2.448 -0.46698,-2.448 -0.078,-0.41101 -0.43701,-0.70899 -0.85601,-0.70899 0,0 -2.112,0 -2.112,0 -0.41901,0 -0.77799,0.29798 -0.85599,0.70899 0,0 -0.46601,2.445 -0.46601,2.445 -0.46099,0.11599 -0.92099,0.25399 -1.37301,0.44101 -0.48599,0.20099 -0.939,0.44699 -1.37399,0.714 0,0 -1.879,-1.27701 -1.879,-1.27701 -0.34601,-0.235 -0.81101,-0.192 -1.107,0.10401 0,0 -1.49301,1.49298 -1.49301,1.49298 -0.29599,0.29602 -0.33899,0.76101 -0.104,1.10702 0,0 1.298,1.909 1.298,1.909 -0.53998,0.91 -0.936,1.89899 -1.16199,2.93399 0,0 -2.09399,0.39999 -2.09399,0.39999 -0.41101,0.078 -0.70901,0.43702 -0.70901,0.85602 0,0 0,2.11099 0,2.11099 0,0.41901 0.298,0.779 0.70901,0.857 0,0 2.216,0.422 2.216,0.422 0.10798,0.39599 0.23298,0.79 0.39399,1.17801 0.25399,0.613 0.56399,1.18399 0.92001,1.71499 0,0 -1.207,1.776 -1.207,1.776 -0.23502,0.34601 -0.19202,0.81101 0.104,1.107 0,0 1.49298,1.49301 1.49298,1.49301 0.29602,0.29599 0.76102,0.33899 1.107,0.104 0,0 1.96802,-1.337 1.96802,-1.337 0.888,0.47998 1.846,0.82098 2.83999,1.01199 0,0 0.435,2.28299 0.435,2.28299 0.078,0.41101 0.43701,0.70901 0.85599,0.70901 0,0 2.11102,0 2.11102,0 0.41898,0 0.77899,-0.298 0.85699,-0.70901 0,0 0.486,-2.54999 0.486,-2.54999 0.281,-0.088 0.55999,-0.18301 0.837,-0.298 0.59799,-0.24799 1.15601,-0.551 1.676,-0.89701 0,0 2.09302,1.42301 2.09302,1.42301 0.34597,0.23501 0.80999,0.19101 1.10598,-0.10501 0,0 1.49301,-1.49298 1.49301,-1.49298 0.29599,-0.29602 0.34,-0.76001 0.10498,-1.10602 0,0 -1.56298,-2.29898 -1.56298,-2.29898 0.406,-0.77002 0.70398,-1.59302 0.89499,-2.444 0,0 2.626,-0.5 2.626,-0.5 0.41101,-0.078 0.70801,-0.439 0.70801,-0.857 0,0 0,-2.11102 0,-2.11102 0,-0.41898 -0.297,-0.77798 -0.70801,-0.85599 z m -12.182,7.32001 c -2.83399,0 -5.13199,-2.298 -5.13199,-5.13202 0,-2.83398 2.298,-5.13098 5.13199,-5.13098 2.83401,0 5.13101,2.297 5.13101,5.13098 0,2.83402 -2.297,5.13202 -5.13101,5.13202 z"
                     id="path48" style="fill:#ffffff" fill-opacity="1" />

               </g>
            </g>
            <g transform="matrix(1.5,0,0,1.5,874.54004,-95.357544)" id="g58" style="opacity:1">
               <g id="g56" style="opacity:1">
                  <path
                     d="m -484.92001,277.686 c 0,0 -2.112,0 -2.112,0 -0.65799,0 -1.224,-0.46899 -1.34699,-1.11499 0,0 -0.37301,-1.95602 -0.37301,-1.95602 -0.827,-0.18799 -1.624,-0.47198 -2.37699,-0.85098 0,0 -1.72101,1.169 -1.72101,1.169 -0.544,0.36899 -1.276,0.29999 -1.74099,-0.164 0,0 -1.49301,-1.49301 -1.49301,-1.49301 -0.465,-0.465 -0.53498,-1.198 -0.16398,-1.742 0,0 1.021,-1.50199 1.021,-1.50199 -0.30301,-0.48401 -0.56601,-0.99301 -0.78302,-1.517 -0.11899,-0.28701 -0.22498,-0.59002 -0.328,-0.936 0,0 -1.913,-0.36401 -1.913,-0.36401 -0.64599,-0.12299 -1.11599,-0.69001 -1.11599,-1.348 0,0 0,-2.11099 0,-2.11099 0,-0.65802 0.47,-1.225 1.11599,-1.34802 0,0 1.77402,-0.33899 1.77402,-0.33899 0.21698,-0.85901 0.548,-1.69101 0.98599,-2.48099 0,0 -1.12301,-1.65002 -1.12301,-1.65002 -0.37,-0.54398 -0.29999,-1.27698 0.165,-1.74198 0,0 1.49302,-1.49301 1.49302,-1.49301 0.46399,-0.464 1.19699,-0.53399 1.74099,-0.164 0,0 1.61499,1.09799 1.61499,1.09799 0.404,-0.23399 0.788,-0.42599 1.16501,-0.58299 0.34699,-0.143 0.71302,-0.267 1.133,-0.38299 0,0 0.406,-2.13501 0.406,-2.13501 0.124,-0.646 0.69101,-1.11499 1.348,-1.11499 0,0 2.112,0 2.112,0 0.65701,0 1.22299,0.46899 1.34701,1.11499 0,0 0.40799,2.141 0.40799,2.141 0.724,0.206 1.42099,0.491 2.07999,0.84599 0,0 1.983,-1.34799 1.983,-1.34799 0.543,-0.37001 1.27502,-0.30101 1.741,0.164 0,0 1.49301,1.49199 1.49301,1.49199 0.46499,0.465 0.53399,1.19703 0.164,1.74201 0,0 -1.314,1.93301 -1.314,1.93301 0.22901,0.396 0.41001,0.75998 0.56,1.125 0.10901,0.262 0.202,0.525 0.28699,0.79099 0,0 2.47,0.47101 2.47,0.47101 0.646,0.12298 1.11502,0.68899 1.11502,1.34698 0,0 0,2.112 0,2.112 0,0.65701 -0.46902,1.22302 -1.11502,1.34601 0,0 -2.30798,0.44101 -2.30798,0.44101 -0.17801,0.69 -0.42102,1.35199 -0.72602,1.975 0,0 1.39701,2.055 1.39701,2.055 0.36901,0.54498 0.29901,1.277 -0.16599,1.74099 0,0 -1.492,1.49302 -1.492,1.49302 -0.465,0.46499 -1.19702,0.53399 -1.741,0.16497 0,0 -1.82001,-1.237 -1.82001,-1.237 -0.47699,0.29602 -0.97201,0.551 -1.47601,0.76001 -0.19699,0.081 -0.39499,0.154 -0.594,0.22101 0,0 -0.42999,2.259 -0.42999,2.259 -0.12399,0.646 -0.69,1.11499 -1.34701,1.11499 z m -6.27198,-5.08902 c 0,0 0.267,0.14502 0.267,0.14502 0.84198,0.45499 1.74799,0.77799 2.69599,0.961 0,0 0.333,0.065 0.333,0.065 0,0 0.499,2.61599 0.499,2.61599 0.033,0.17499 0.18701,0.302 0.36499,0.302 0,0 2.112,0 2.112,0 0.17801,0 0.332,-0.12701 0.36502,-0.302 0,0 0.54199,-2.845 0.54199,-2.845 0,0 0.28601,-0.09 0.28601,-0.09 0.267,-0.083 0.53198,-0.17402 0.79498,-0.28202 0.54502,-0.22699 1.08002,-0.51199 1.59,-0.85098 0,0 0.28,-0.18701 0.28,-0.18701 0,0 2.371,1.612 2.371,1.612 0.14902,0.10101 0.34702,0.081 0.47202,-0.045 0,0 1.492,-1.49301 1.492,-1.49301 0.12598,-0.126 0.14499,-0.324 0.045,-0.47201 0,0 -1.73199,-2.547 -1.73199,-2.547 0,0 0.14099,-0.26599 0.14099,-0.26599 0.379,-0.71701 0.664,-1.49799 0.849,-2.319 0,0 0.072,-0.32098 0.072,-0.32098 0,0 2.948,-0.56202 2.948,-0.56202 0.17599,-0.033 0.302,-0.186 0.302,-0.36401 0,0 0,-2.112 0,-2.112 0,-0.17899 -0.12701,-0.332 -0.302,-0.36499 0,0 0,0 0,0 0,0 -3.069,-0.58499 -3.069,-0.58499 0,0 -0.085,-0.29501 -0.085,-0.29501 -0.095,-0.32999 -0.206,-0.65799 -0.34,-0.982 -0.16599,-0.39999 -0.37399,-0.80301 -0.655,-1.26599 0,0 -0.16699,-0.27503 -0.16699,-0.27503 0,0 1.673,-2.46099 1.673,-2.46099 0.10001,-0.14698 0.082,-0.34699 -0.044,-0.473 0,0 -1.49301,-1.49198 -1.49301,-1.49198 -0.12598,-0.127 -0.32499,-0.14602 -0.47199,-0.045 0,0 -2.49799,1.698 -2.49799,1.698 0,0 -0.272,-0.15702 -0.272,-0.15702 -0.75,-0.436 -1.56201,-0.76399 -2.41,-0.97899 0,0 -0.30902,-0.077 -0.30902,-0.077 0,0 -0.526,-2.76199 -0.526,-2.76199 -0.034,-0.176 -0.18699,-0.30299 -0.36499,-0.30299 0,0 -2.112,0 -2.112,0 -0.17801,0 -0.331,0.12699 -0.36499,0.30299 0,0 -0.52601,2.75799 -0.52601,2.75799 0,0 -0.30899,0.077 -0.30899,0.077 -0.50701,0.12799 -0.92102,0.261 -1.30401,0.41899 -0.413,0.17199 -0.84,0.393 -1.30399,0.67801 0,0 -0.27502,0.168 -0.27502,0.168 0,0 -2.146,-1.459 -2.146,-1.459 -0.14798,-0.10001 -0.34598,-0.08 -0.47198,0.045 0,0 -1.49301,1.49302 -1.49301,1.49302 -0.12601,0.12597 -0.14499,0.32498 -0.045,0.47198 0,0 1.47699,2.172 1.47699,2.172 0,0 -0.16198,0.27301 -0.16198,0.27301 -0.52002,0.87698 -0.89301,1.815 -1.10401,2.78698 0,0 -0.07,0.323 -0.07,0.323 0,0 -2.418,0.461 -2.418,0.461 -0.17501,0.033 -0.303,0.18601 -0.303,0.36502 0,0 0,2.11099 0,2.11099 0,0.17899 0.12701,0.33301 0.302,0.366 0,0 2.52301,0.48001 2.52301,0.48001 0,0 0.082,0.301 0.082,0.301 0.11899,0.435 0.23801,0.78998 0.37399,1.11798 0.23499,0.56702 0.52899,1.11401 0.87399,1.62802 0,0 0.18802,0.28098 0.18802,0.28098 0,0 -1.397,2.05599 -1.397,2.05599 -0.10101,0.14802 -0.082,0.34601 0.044,0.47202 0,0 1.49301,1.49301 1.49301,1.49301 0.125,0.12598 0.323,0.14499 0.47101,0.045 0,0 2.221,-1.51001 2.221,-1.51001 z m 4.69999,-2.39297 c -3.10498,0 -5.63199,-2.52701 -5.63199,-5.63202 0,-3.10498 2.52701,-5.63098 5.63199,-5.63098 3.10501,0 5.63201,2.526 5.63201,5.63098 0,3.10501 -2.527,5.63202 -5.63201,5.63202 z m 0,-10.263 c -2.55399,0 -4.63199,2.077 -4.63199,4.63098 0,2.55402 2.078,4.63202 4.63199,4.63202 2.55401,0 4.63201,-2.078 4.63201,-4.63202 0,-2.55398 -2.078,-4.63098 -4.63201,-4.63098 z"
                     id="path54" style="fill:#ff6b0a" fill-opacity="1" />

               </g>
            </g>
         </g>
         <g transform="matrix(0.84793472,-0.25920051,0.25920051,0.84793472,14.233673,113.77934)" id="g74"
            style="opacity:1">
            <g transform="matrix(1.5,0,0,1.5,874.54053,-95.358505)" id="g66" style="opacity:1">
               <g id="g64" style="opacity:1">
                  <path
                     d="m -337.41501,161.89101 c 0,0 -2.767,-0.528 -2.767,-0.528 -0.1,-0.347 -0.21698,-0.692 -0.35898,-1.03402 -0.195,-0.47099 -0.432,-0.91198 -0.68902,-1.33499 0,0 1.492,-2.195 1.492,-2.195 0.23502,-0.346 0.19202,-0.81099 -0.104,-1.107 0,0 -1.49298,-1.492 -1.49298,-1.492 -0.29602,-0.29599 -0.76102,-0.34 -1.107,-0.105 0,0 -2.238,1.522 -2.238,1.522 -0.79401,-0.46 -1.64801,-0.807 -2.538,-1.031 0,0 -0.46701,-2.44901 -0.46701,-2.44901 -0.078,-0.41099 -0.43799,-0.709 -0.85599,-0.709 0,0 -2.11102,0 -2.11102,0 -0.419,0 -0.77899,0.29801 -0.85699,0.709 0,0 -0.46601,2.44501 -0.46601,2.44501 -0.46099,0.116 -0.92099,0.25501 -1.37298,0.442 -0.48602,0.20101 -0.939,0.446 -1.37399,0.713 0,0 -1.87903,-1.27699 -1.87903,-1.27699 -0.34598,-0.235 -0.81,-0.192 -1.10599,0.10399 0,0 -1.49301,1.49301 -1.49301,1.49301 -0.29599,0.29599 -0.34,0.76098 -0.10498,1.10699 0,0 1.298,1.909 1.298,1.909 -0.54001,0.91 -0.936,1.90001 -1.16202,2.935 0,0 -2.09399,0.399 -2.09399,0.399 -0.41101,0.078 -0.70801,0.43699 -0.70801,0.856 0,0 0,2.112 0,2.112 0,0.41901 0.297,0.778 0.70801,0.856 0,0 2.216,0.422 2.216,0.422 0.108,0.395 0.233,0.789 0.39398,1.17799 0.25403,0.61301 0.56501,1.18502 0.92103,1.71601 0,0 -1.20801,1.776 -1.20801,1.776 -0.23499,0.34601 -0.19101,0.81 0.10501,1.106 0,0 1.49298,1.493 1.49298,1.493 0.29602,0.296 0.76001,0.33999 1.10602,0.10499 0,0 1.96798,-1.33799 1.96798,-1.33799 0.88801,0.481 1.84601,0.82099 2.84,1.012 0,0 0.435,2.284 0.435,2.284 0.078,0.411 0.43701,0.70799 0.85602,0.70799 0,0 2.112,0 2.112,0 0.419,0 0.77798,-0.29699 0.85598,-0.70799 0,0 0.486,-2.55099 0.486,-2.55099 0.281,-0.088 0.56002,-0.183 0.837,-0.29801 0.59802,-0.248 1.15601,-0.55099 1.676,-0.897 0,0 2.09301,1.423 2.09301,1.423 0.34601,0.235 0.81101,0.191 1.107,-0.10499 0,0 1.492,-1.49301 1.492,-1.49301 0.29599,-0.29599 0.34,-0.76 0.10501,-1.10601 0,0 -1.56301,-2.29899 -1.56301,-2.29899 0.406,-0.76999 0.70401,-1.59301 0.89501,-2.444 0,0 2.62598,-0.5 2.62598,-0.5 0.41101,-0.078 0.70801,-0.437 0.70801,-0.85601 0,0 0,-2.112 0,-2.112 0,-0.41899 -0.297,-0.778 -0.70801,-0.85598 z m -12.18197,7.31999 c -2.83402,0 -5.13102,-2.297 -5.13102,-5.131 0,-2.834 2.297,-5.132 5.13102,-5.132 2.83398,0 5.13198,2.298 5.13198,5.132 0,2.834 -2.298,5.131 -5.13198,5.131 z"
                     id="path62" style="fill:#ffffff" fill-opacity="1" />

               </g>
            </g>
            <g transform="matrix(1.5,0,0,1.5,874.54053,-95.358505)" id="g72" style="opacity:1">
               <g id="g70" style="opacity:1">
                  <path
                     d="m -348.02499,177.194 c 0,0 -2.112,0 -2.112,0 -0.65702,0 -1.223,-0.47 -1.34702,-1.116 0,0 -0.37298,-1.95601 -0.37298,-1.95601 -0.82602,-0.18599 -1.62201,-0.47099 -2.37702,-0.85099 0,0 -1.72098,1.169 -1.72098,1.169 -0.544,0.36901 -1.276,0.301 -1.74102,-0.164 0,0 -1.49299,-1.494 -1.49299,-1.494 -0.46499,-0.465 -0.535,-1.19699 -0.165,-1.741 0,0 1.02099,-1.502 1.02099,-1.502 -0.30298,-0.48401 -0.565,-0.99299 -0.78198,-1.51601 -0.11902,-0.287 -0.22501,-0.58999 -0.328,-0.93598 0,0 -1.913,-0.36501 -1.913,-0.36501 -0.64602,-0.123 -1.11502,-0.69 -1.11502,-1.34801 0,0 0,-2.11099 0,-2.11099 0,-0.65601 0.469,-1.224 1.11402,-1.34801 0,0 1.776,-0.33799 1.776,-0.33799 0.21698,-0.859 0.54699,-1.691 0.98498,-2.48101 0,0 -1.12198,-1.65098 -1.12198,-1.65098 -0.37002,-0.54401 -0.30102,-1.276 0.164,-1.74102 0,0 1.49299,-1.49299 1.49299,-1.49299 0.466,-0.46401 1.199,-0.534 1.742,-0.164 0,0 1.61401,1.098 1.61401,1.098 0.40299,-0.234 0.788,-0.427 1.16599,-0.583 0.34799,-0.14499 0.71301,-0.269 1.13199,-0.383 0,0 0.40701,-2.136 0.40701,-2.136 0.12299,-0.64501 0.69,-1.114 1.34799,-1.114 0,0 2.11102,0 2.11102,0 0.65699,0 1.224,0.46899 1.348,1.114 0,0 0.40698,2.142 0.40698,2.142 0.72201,0.205 1.41901,0.488 2.08002,0.84401 0,0 1.983,-1.347 1.983,-1.347 0.543,-0.37001 1.276,-0.30101 1.741,0.16398 0,0 1.49298,1.49301 1.49298,1.49301 0.46502,0.465 0.535,1.197 0.164,1.741 0,0 -1.314,1.933 -1.314,1.933 0.22602,0.392 0.41001,0.76199 0.56,1.12399 0.108,0.26201 0.203,0.526 0.28702,0.79201 0,0 2.47,0.47099 2.47,0.47099 0.646,0.123 1.11499,0.68901 1.11499,1.347 0,0 0,2.112 0,2.112 0,0.65801 -0.46899,1.224 -1.11499,1.347 0,0 -2.30801,0.44001 -2.30801,0.44001 -0.17701,0.68901 -0.41999,1.35099 -0.72599,1.97599 0,0 1.396,2.05501 1.396,2.05501 0.36999,0.54399 0.30099,1.276 -0.164,1.741 0,0 -1.49301,1.493 -1.49301,1.493 -0.465,0.46501 -1.197,0.533 -1.741,0.164 0,0 -1.819,-1.236 -1.819,-1.236 -0.47602,0.294 -0.97101,0.549 -1.47699,0.75901 -0.19602,0.081 -0.39401,0.155 -0.59302,0.22099 0,0 -0.431,2.259 -0.431,2.259 -0.12298,0.646 -0.68899,1.116 -1.34698,1.116 z m -6.27201,-5.09 c 0,0 0.267,0.14499 0.267,0.14499 0.844,0.457 1.75101,0.78002 2.69599,0.96102 0,0 0.33401,0.065 0.33401,0.065 0,0 0.49799,2.61602 0.49799,2.61602 0.033,0.17599 0.18701,0.30299 0.36502,0.30299 0,0 2.112,0 2.112,0 0.17801,0 0.332,-0.127 0.36499,-0.30299 0,0 0.54199,-2.84601 0.54199,-2.84601 0,0 0.28702,-0.089 0.28702,-0.089 0.26599,-0.083 0.53198,-0.17399 0.794,-0.28199 0.54798,-0.22699 1.08399,-0.514 1.59098,-0.851 0,0 0.27902,-0.18601 0.27902,-0.18601 0,0 2.371,1.612 2.371,1.612 0.14798,0.10201 0.34698,0.08 0.47299,-0.045 0,0 1.49201,-1.49299 1.49201,-1.49299 0.126,-0.12599 0.14499,-0.325 0.045,-0.472 0,0 -1.732,-2.547 -1.732,-2.547 0,0 0.14002,-0.26601 0.14002,-0.26601 0.38,-0.72 0.66598,-1.50099 0.84997,-2.31999 0,0 0.071,-0.321 0.071,-0.321 0,0 2.948,-0.561 2.948,-0.561 0.17499,-0.033 0.302,-0.18601 0.302,-0.36501 0,0 0,-2.112 0,-2.112 0,-0.179 -0.12601,-0.332 -0.301,-0.36499 0,0 -0.001,0 -0.001,0 0,0 -3.068,-0.585 -3.068,-0.585 0,0 -0.086,-0.295 -0.086,-0.295 -0.095,-0.33 -0.20502,-0.65801 -0.33902,-0.982 -0.16599,-0.399 -0.38099,-0.81401 -0.65598,-1.266 0,0 -0.16702,-0.274 -0.16702,-0.274 0,0 1.67401,-2.46199 1.67401,-2.46199 0.10101,-0.14801 0.081,-0.34601 -0.045,-0.472 0,0 -1.49299,-1.49302 -1.49299,-1.49302 -0.126,-0.12599 -0.32501,-0.14698 -0.47201,-0.045 0,0 -2.49698,1.69799 -2.49698,1.69799 0,0 -0.272,-0.15699 -0.272,-0.15699 -0.75501,-0.43599 -1.56601,-0.766 -2.41001,-0.978 0,0 -0.30999,-0.078 -0.30999,-0.078 0,0 -0.526,-2.762 -0.526,-2.762 -0.033,-0.175 -0.18702,-0.302 -0.365,-0.302 0,0 -2.11102,0 -2.11102,0 -0.17798,0 -0.33298,0.127 -0.366,0.302 0,0 -0.52499,2.758 -0.52499,2.758 0,0 -0.311,0.079 -0.311,0.079 -0.504,0.12601 -0.918,0.25901 -1.30301,0.418 -0.41599,0.17201 -0.84098,0.39301 -1.30298,0.677 0,0 -0.275,0.17 -0.275,0.17 0,0 -2.147,-1.45999 -2.147,-1.45999 -0.14603,-0.10001 -0.345,-0.079 -0.47201,0.045 0,0 -1.49298,1.493 -1.49298,1.493 -0.12601,0.126 -0.14402,0.32499 -0.044,0.472 0,0 1.47699,2.17199 1.47699,2.17199 0,0 -0.163,0.27301 -0.163,0.27301 -0.52099,0.87799 -0.89099,1.81501 -1.10299,2.786 0,0 -0.071,0.324 -0.071,0.324 0,0 -2.418,0.45999 -2.418,0.45999 -0.17398,0.033 -0.302,0.18702 -0.302,0.36501 0,0 0,2.11099 0,2.11099 0,0.179 0.12702,0.332 0.302,0.36501 0,0 2.52301,0.48199 2.52301,0.48199 0,0 0.082,0.30101 0.082,0.30101 0.11899,0.43599 0.237,0.79 0.37299,1.118 0.23401,0.56599 0.52902,1.11301 0.87402,1.627 0,0 0.18799,0.281 0.18799,0.281 0,0 -1.397,2.056 -1.397,2.056 -0.10001,0.148 -0.082,0.34501 0.044,0.471 0,0 1.49298,1.494 1.49298,1.494 0.126,0.12399 0.324,0.144 0.47201,0.044 0,0 2.22,-1.50901 2.22,-1.50901 z m 4.70002,-2.393 c -3.10502,0 -5.63202,-2.52699 -5.63202,-5.63201 0,-3.10499 2.527,-5.63099 5.63202,-5.63099 3.10498,0 5.63198,2.526 5.63198,5.63099 0,3.10502 -2.527,5.63201 -5.63198,5.63201 z m 0,-10.263 c -2.55402,0 -4.63202,2.07699 -4.63202,4.63099 0,2.55401 2.078,4.63201 4.63202,4.63201 2.55398,0 4.63198,-2.078 4.63198,-4.63201 0,-2.554 -2.078,-4.63099 -4.63198,-4.63099 z"
                     id="path68" style="fill:#ff6b0a" fill-opacity="1" />

               </g>
            </g>
         </g>
      </g>
      <g transform="matrix(0.06325481,0,0,0.06325481,312.78732,218.64661)" style="display:block;opacity:1" id="g96">
         <g transform="matrix(1.5,0,0,1.5,354.811,236.14101)" id="g82" style="opacity:1">
            <g id="g80" style="opacity:1">
               <path
                  d="m 10.109,8.3800001 c 0,0 -20.218,0 -20.218,0 -1.616,0 -2.927,-1.3099999 -2.927,-2.9260001 0,0 0,-10.908 0,-10.908 0,-1.6160002 1.311,-2.9260001 2.927,-2.9260001 0,0 20.218,0 20.218,0 1.616,0 2.927,1.3099999 2.927,2.9260001 0,0 0,10.908 0,10.908 0,1.6160002 -1.311,2.9260001 -2.927,2.9260001 z"
                  id="path78" style="fill:#adeeaa" fill-opacity="1" />

            </g>
         </g>
         <g transform="matrix(1.5,0,0,1.5,354.811,236.161)" id="g88" style="opacity:1">
            <g id="g86" style="opacity:1">
               <path
                  d="m 10.375,-8.3669996 c 0,0 0,10.7879996 0,10.7879996 0,1.6160002 -1.3100004,2.9260001 -2.9260001,2.9260001 0,0 -20.2189999,0 -20.2189999,0 -0.091,0 -0.177,-0.019 -0.266,-0.027 0,0 0,0.1199999 0,0.1199999 0,1.6160001 1.311,2.9269995 2.927,2.9269995 0,0 20.218,0 20.218,0 1.616,0 2.927,-1.3109994 2.927,-2.9269995 0,0 0,-10.9070001 0,-10.9070001 0,-1.5250001 -1.172,-2.7629995 -2.661,-2.8999995 z"
                  id="path84" style="fill:#8de37f" fill-opacity="1" />

            </g>
         </g>
         <g transform="matrix(1.5,0,0,1.5,874.54004,-95.358994)" id="g94" style="opacity:1">
            <g id="g92" style="opacity:1">
               <path
                  d="m -336.37601,229.771 c 0,0 -20.21899,0 -20.21899,0 -1.82901,0 -3.31699,-1.489 -3.31699,-3.318 0,0 0,-10.90699 0,-10.90699 0,-1.82901 1.48798,-3.31701 3.31699,-3.31701 0,0 20.21899,0 20.21899,0 1.82901,0 3.31601,1.488 3.31601,3.31701 0,0 0,10.90699 0,10.90699 0,1.829 -1.487,3.318 -3.31601,3.318 z M -356.595,213.00999 c -1.39801,0 -2.53601,1.138 -2.53601,2.53602 0,0 0,10.90699 0,10.90699 0,1.398 1.138,2.536 2.53601,2.536 0,0 20.21899,0 20.21899,0 1.39801,0 2.53501,-1.138 2.53501,-2.536 0,0 0,-10.90699 0,-10.90699 0,-1.39802 -1.137,-2.53602 -2.53501,-2.53602 0,0 -20.21899,0 -20.21899,0 z"
                  id="path90" style="fill:#6e7389" fill-opacity="1" />

            </g>
         </g>
      </g>
      <g transform="matrix(0.33027655,0,0,0.33027655,223.42271,179.28171)" style="display:block;opacity:1" id="g116">
         <g transform="matrix(1.5,0,0,1.5,354.811,269.254)" id="g102" style="opacity:1">
            <g id="g100" style="opacity:1">
               <path
                  d="m 10.109,8.3800001 c 0,0 -20.218,0 -20.218,0 -1.616,0 -2.927,-1.3099999 -2.927,-2.9260001 0,0 0,-10.908 0,-10.908 0,-1.6160002 1.311,-2.9260001 2.927,-2.9260001 0,0 20.218,0 20.218,0 1.616,0 2.927,1.3099999 2.927,2.9260001 0,0 0,10.908 0,10.908 0,1.6160002 -1.311,2.9260001 -2.927,2.9260001 z"
                  id="path98" style="fill:#f6f19d" fill-opacity="1" />

            </g>
         </g>
         <g transform="matrix(1.5,0,0,1.5,354.811,269.27399)" id="g108" style="opacity:1">
            <g id="g106" style="opacity:1">
               <path
                  d="m 10.375,-8.3669996 c 0,0 0,10.7879996 0,10.7879996 0,1.6160002 -1.3100004,2.9260001 -2.9260001,2.9260001 0,0 -20.2189999,0 -20.2189999,0 -0.091,0 -0.177,-0.019 -0.266,-0.027 0,0 0,0.1199999 0,0.1199999 0,1.6160001 1.311,2.9269995 2.927,2.9269995 0,0 20.218,0 20.218,0 1.616,0 2.927,-1.3109994 2.927,-2.9269995 0,0 0,-10.9070001 0,-10.9070001 0,-1.5250001 -1.172,-2.7629995 -2.661,-2.8999995 z"
                  id="path104" style="fill:#f6d42e" fill-opacity="1" />

            </g>
         </g>
         <g transform="matrix(1.5,0,0,1.5,874.54004,-95.35849)" id="g114" style="opacity:1">
            <g id="g112" style="opacity:1">
               <path
                  d="m -336.37601,251.84599 c 0,0 -20.21899,0 -20.21899,0 -1.82901,0 -3.31699,-1.489 -3.31699,-3.31799 0,0 0,-10.907 0,-10.907 0,-1.82899 1.48798,-3.317 3.31699,-3.317 0,0 20.21899,0 20.21899,0 1.82901,0 3.31601,1.48801 3.31601,3.317 0,0 0,10.907 0,10.907 0,1.82899 -1.487,3.31799 -3.31601,3.31799 z M -356.595,235.08501 c -1.39801,0 -2.53601,1.138 -2.53601,2.53599 0,0 0,10.907 0,10.907 0,1.39799 1.138,2.537 2.53601,2.537 0,0 20.21899,0 20.21899,0 1.39801,0 2.53501,-1.13901 2.53501,-2.537 0,0 0,-10.907 0,-10.907 0,-1.39799 -1.137,-2.53599 -2.53501,-2.53599 0,0 -20.21899,0 -20.21899,0 z"
                  id="path110" style="fill:#6e7389" fill-opacity="1" />

            </g>
         </g>
      </g>
      <g transform="matrix(0.80427188,1.89119e-6,-1.89119e-6,0.80427188,64.790024,59.650894)"
         style="display:block;opacity:1" id="g136">
         <g transform="matrix(1.5,0,0,1.5,354.811,302.367)" id="g122" style="opacity:1">
            <g id="g120" style="opacity:1">
               <path
                  d="m 10.109,8.3800001 c 0,0 -20.218,0 -20.218,0 -1.616,0 -2.927,-1.3099999 -2.927,-2.9260001 0,0 0,-10.908 0,-10.908 0,-1.6160002 1.311,-2.9260001 2.927,-2.9260001 0,0 20.218,0 20.218,0 1.616,0 2.927,1.3099999 2.927,2.9260001 0,0 0,10.908 0,10.908 0,1.6160002 -1.311,2.9260001 -2.927,2.9260001 z"
                  id="path118" style="fill:#fac261" fill-opacity="1" />

            </g>
         </g>
         <g transform="matrix(1.5,0,0,1.5,354.811,302.38699)" id="g128" style="opacity:1">
            <g id="g126" style="opacity:1">
               <path
                  d="m 10.375,-8.3669996 c 0,0 0,10.7879996 0,10.7879996 0,1.6160002 -1.3100004,2.9260001 -2.9260001,2.9260001 0,0 -20.2189999,0 -20.2189999,0 -0.091,0 -0.177,-0.019 -0.266,-0.027 0,0 0,0.1199999 0,0.1199999 0,1.6160001 1.311,2.9269995 2.927,2.9269995 0,0 20.218,0 20.218,0 1.616,0 2.927,-1.3109994 2.927,-2.9269995 0,0 0,-10.9070001 0,-10.9070001 0,-1.5250001 -1.172,-2.7639999 -2.661,-2.8999995 z"
                  id="path124" style="fill:#f0a374" fill-opacity="1" />

            </g>
         </g>
         <g transform="matrix(1.5,0,0,1.5,874.54004,-95.357971)" id="g134" style="opacity:1">
            <g id="g132" style="opacity:1">
               <path
                  d="m -336.37601,273.92099 c 0,0 -20.21899,0 -20.21899,0 -1.82901,0 -3.31699,-1.48798 -3.31699,-3.31699 0,0 0,-10.90799 0,-10.90799 0,-1.82901 1.48798,-3.31701 3.31699,-3.31701 0,0 20.21899,0 20.21899,0 1.82901,0 3.31601,1.488 3.31601,3.31701 0,0 0,10.90799 0,10.90799 0,1.82901 -1.487,3.31699 -3.31601,3.31699 z M -356.595,257.16 c -1.39801,0 -2.53601,1.138 -2.53601,2.53601 0,0 0,10.90799 0,10.90799 0,1.39801 1.138,2.53601 2.53601,2.53601 0,0 20.21899,0 20.21899,0 1.39801,0 2.53501,-1.138 2.53501,-2.53601 0,0 0,-10.90799 0,-10.90799 0,-1.39801 -1.137,-2.53601 -2.53501,-2.53601 0,0 -20.21899,0 -20.21899,0 z"
                  id="path130" style="fill:#6e7389" fill-opacity="1" />

            </g>
         </g>
      </g>
      <g transform="matrix(1.0457084,2.4589115e-6,-2.4589115e-6,1.0457084,-16.011841,-13.351746)"
         style="display:block;opacity:1" id="g268">
         <g id="g228" style="opacity:1">
            <g transform="matrix(1.5,0,0,1.5,283.474,284.07599)" id="g142" style="opacity:1">
               <g id="g140" style="opacity:1">
                  <path
                     d="m 58.671001,-63.972 c -0.015,-0.076 -0.044,-0.145996 -0.065,-0.220001 -0.03,-0.103997 -0.056,-0.209 -0.096,-0.307999 -0.042,-0.101997 -0.097,-0.195 -0.148998,-0.291 -0.033,-0.061 -0.062,-0.124001 -0.099,-0.182 -0.074,-0.114997 -0.159,-0.218002 -0.247002,-0.320999 -0.025,-0.029 -0.048,-0.061 -0.075,-0.09 -0.107998,-0.115997 -0.226998,-0.219993 -0.351998,-0.318 -0.011,-0.009 -0.021,-0.018 -0.033,-0.02699 -0.490001,-0.369004 -1.091999,-0.597 -1.753002,-0.597 0,0 -17.317997,0 -17.317997,0 0,0 -2.901001,0 -2.901001,0 0,0 -87.103,0 -87.103,0 -3.980999,0 -7.208001,3.227996 -7.208001,7.208995 0,0 0,118.235001 0,118.235001 0,3.980999 3.227002,7.207996 7.208001,7.207996 0,0 90.004001,0 90.004001,0 3.980999,0 7.209,-3.226997 7.209,-7.207996 0,0 0,-108.682999 0,-108.682999 0,0 10.108997,0 10.108997,0 0,0 0,0 0,0 1.616001,0 2.926003,-1.311 2.926003,-2.927002 0,0 0,-10.906997 0,-10.906997 0,-0.196003 -0.02,-0.388001 -0.057,-0.573002 z"
                     id="path138" style="fill:#ffffff" fill-opacity="1" />

               </g>
            </g>
            <g transform="matrix(1.5,0,0,1.5,283.75201,284.07599)" id="g148" style="opacity:1">
               <g id="g146" style="opacity:1">
                  <path
                     d="m 58.485001,-63.972 c -0.015,-0.076 -0.044,-0.145996 -0.065,-0.220001 -0.03,-0.103997 -0.055,-0.209 -0.095,-0.307999 -0.042,-0.101997 -0.097,-0.195 -0.149002,-0.291 -0.033,-0.061 -0.062,-0.124001 -0.099,-0.182 -0.074,-0.114997 -0.16,-0.218002 -0.248001,-0.320999 -0.025,-0.029 -0.047,-0.061 -0.074,-0.09 C 57.646999,-65.5 57.528,-65.603996 57.403,-65.702003 c -0.011,-0.009 -0.021,-0.018 -0.033,-0.02699 -0.489998,-0.369004 -1.091999,-0.597 -1.752998,-0.597 0,0 -1.472001,0 -1.472001,0 0,0 0,9.328994 0,9.328994 0,1.616001 -1.311,2.926003 -2.927001,2.926003 0,0 -10.108998,0 -10.108998,0 0,0 0,108.682999 0,108.682999 0,3.980999 -3.227001,7.208 -7.208,7.208 0,0 -90.005001,0 -90.005001,0 -0.858002,0 -1.675999,-0.157002 -2.438999,-0.432 0.951999,2.866997 3.649997,4.937996 6.836998,4.937996 0,0 90.005001,0 90.005001,0 3.980999,0 7.208,-3.226997 7.208,-7.207996 0,0 0,-108.682999 0,-108.682999 0,0 10.110001,0 10.110001,0 1.616001,0 2.925998,-1.311 2.925998,-2.927002 0,0 0,-10.906997 0,-10.906997 0,-0.196003 -0.021,-0.388001 -0.058,-0.573002 z"
                     id="path144" style="fill:#8bb4ee" fill-opacity="1" />

               </g>
            </g>
            <g transform="matrix(1.5,0,0,1.5,212.131,284.07599)" id="g154" style="opacity:1">
               <g id="g152" style="opacity:1">
                  <path
                     d="m -11.166,-59.083 c 0,0 0,118.166 0,118.166 0,4 3.2420002,7.242996 7.242,7.242996 0,0 15.09,0 15.09,0 0,0 0,-132.651992 0,-132.651992 0,0 -15.09,0 -15.09,0 -3.9999998,0 -7.242,3.242996 -7.242,7.242996 z"
                     id="path150" style="fill:#ff6b0a" fill-opacity="1" />

               </g>
            </g>
            <g transform="matrix(1.5,0,0,1.5,228.881,284.077)" id="g160" style="opacity:1">
               <g id="g158" style="opacity:1">
                  <path
                     d="m 1.12,66.325996 c 0,0 -2.24,0 -2.24,0 0,0 0,-132.651992 0,-132.651992 0,0 2.24,0 2.24,0 0,0 0,132.651992 0,132.651992 z"
                     id="path156" style="fill:#4056b4" fill-opacity="1" />

               </g>
            </g>
            <g transform="matrix(1.5,0,0,1.5,208.368,351.59698)" id="g166" style="opacity:1">
               <g id="g164" style="opacity:1">
                  <path
                     d="m 3.2520001,-3.2520001 c 1.7959998,1.7960001 1.7959998,4.7080001 0,6.5040002 -1.7960001,1.7959998 -4.7080001,1.7959998 -6.5040002,0 -1.7959998,-1.7960001 -1.7959998,-4.7080001 0,-6.5040002 1.7960001,-1.7959998 4.7080001,-1.7959998 6.5040002,0 z"
                     id="path162" style="fill:#82abe5" fill-opacity="1" />

               </g>
            </g>
            <g transform="matrix(1.5,0,0,1.5,197.433,351.59601)" id="g172" style="opacity:1">
               <g id="g170" style="opacity:1">
                  <path
                     d="m 7.29,1.6799999 c 0,0 -14.58,0 -14.58,0 -0.9280004,0 -1.6800003,-0.75199993 -1.6800003,-1.6799999 0,-0.92799997 0.7519999,-1.6799999 1.6800003,-1.6799999 0,0 14.58,0 14.58,0 0.9280004,0 1.6800003,0.75199993 1.6800003,1.6799999 0,0.92799997 -0.7519999,1.6799999 -1.6800003,1.6799999 z"
                     id="path168" style="fill:#4056b4" fill-opacity="1" />

               </g>
            </g>
            <g transform="matrix(1.5,0,0,1.5,208.368,317.836)" id="g178" style="opacity:1">
               <g id="g176" style="opacity:1">
                  <path
                     d="m 3.2520001,-3.2520001 c 1.7959998,1.7960001 1.7959998,4.7080001 0,6.5040002 -1.7960001,1.7959998 -4.7080001,1.7959998 -6.5040002,0 -1.7959998,-1.7960001 -1.7959998,-4.7080001 0,-6.5040002 1.7960001,-1.7959998 4.7080001,-1.7959998 6.5040002,0 z"
                     id="path174" style="fill:#82abe5" fill-opacity="1" />

               </g>
            </g>
            <g transform="matrix(1.5,0,0,1.5,197.433,317.836)" id="g184" style="opacity:1">
               <g id="g182" style="opacity:1">
                  <path
                     d="m 7.29,1.6799999 c 0,0 -14.58,0 -14.58,0 -0.9280004,0 -1.6800003,-0.75199993 -1.6800003,-1.6799999 0,-0.92799997 0.7519999,-1.6799999 1.6800003,-1.6799999 0,0 14.58,0 14.58,0 0.9280004,0 1.6800003,0.75199993 1.6800003,1.6799999 0,0.92799997 -0.7519999,1.6799999 -1.6800003,1.6799999 z"
                     id="path180" style="fill:#4056b4" fill-opacity="1" />

               </g>
            </g>
            <g transform="matrix(1.5,0,0,1.5,208.368,284.07599)" id="g190" style="opacity:1">
               <g id="g188" style="opacity:1">
                  <path
                     d="m 3.2520001,-3.2520001 c 1.7959998,1.7960001 1.7959998,4.7080001 0,6.5040002 -1.7960001,1.7959998 -4.7080001,1.7959998 -6.5040002,0 -1.7959998,-1.7960001 -1.7959998,-4.7080001 0,-6.5040002 1.7960001,-1.7959998 4.7080001,-1.7959998 6.5040002,0 z"
                     id="path186" style="fill:#82abe5" fill-opacity="1" />

               </g>
            </g>
            <g transform="matrix(1.5,0,0,1.5,197.433,284.07599)" id="g196" style="opacity:1">
               <g id="g194" style="opacity:1">
                  <path
                     d="m 7.29,1.6799999 c 0,0 -14.58,0 -14.58,0 -0.9280004,0 -1.6800003,-0.75199993 -1.6800003,-1.6799999 0,-0.92799997 0.7519999,-1.6799999 1.6800003,-1.6799999 0,0 14.58,0 14.58,0 0.9280004,0 1.6800003,0.75199993 1.6800003,1.6799999 0,0.92799997 -0.7519999,1.6799999 -1.6800003,1.6799999 z"
                     id="path192" style="fill:#4056b4" fill-opacity="1" />

               </g>
            </g>
            <g transform="matrix(1.5,0,0,1.5,208.368,250.31599)" id="g202" style="opacity:1">
               <g id="g200" style="opacity:1">
                  <path
                     d="m 3.2520001,-3.2520001 c 1.7959998,1.7960001 1.7959998,4.7080001 0,6.5040002 -1.7960001,1.7959998 -4.7080001,1.7959998 -6.5040002,0 -1.7959998,-1.7960001 -1.7959998,-4.7080001 0,-6.5040002 1.7960001,-1.7959998 4.7080001,-1.7959998 6.5040002,0 z"
                     id="path198" style="fill:#82abe5" fill-opacity="1" />

               </g>
            </g>
            <g transform="matrix(1.5,0,0,1.5,197.433,250.31599)" id="g208" style="opacity:1">
               <g id="g206" style="opacity:1">
                  <path
                     d="m 7.29,1.6799999 c 0,0 -14.58,0 -14.58,0 -0.9280004,0 -1.6800003,-0.75199993 -1.6800003,-1.6799999 0,-0.92799997 0.7519999,-1.6799999 1.6800003,-1.6799999 0,0 14.58,0 14.58,0 0.9280004,0 1.6800003,0.75199993 1.6800003,1.6799999 0,0.92799997 -0.7519999,1.6799999 -1.6800003,1.6799999 z"
                     id="path204" style="fill:#4056b4" fill-opacity="1" />

               </g>
            </g>
            <g transform="matrix(1.5,0,0,1.5,208.368,216.556)" id="g214" style="opacity:1">
               <g id="g212" style="opacity:1">
                  <path
                     d="m 3.2520001,-3.2520001 c 1.7959998,1.7960001 1.7959998,4.7080001 0,6.5040002 -1.7960001,1.7959998 -4.7080001,1.7959998 -6.5040002,0 -1.7959998,-1.7960001 -1.7959998,-4.7080001 0,-6.5040002 1.7960001,-1.7959998 4.7080001,-1.7959998 6.5040002,0 z"
                     id="path210" style="fill:#82abe5" fill-opacity="1" />

               </g>
            </g>
            <g transform="matrix(1.5,0,0,1.5,197.433,216.55499)" id="g220" style="opacity:1">
               <g id="g218" style="opacity:1">
                  <path
                     d="m 7.29,1.6799999 c 0,0 -14.58,0 -14.58,0 -0.9280004,0 -1.6800003,-0.75199993 -1.6800003,-1.6799999 0,-0.92799997 0.7519999,-1.6799999 1.6800003,-1.6799999 0,0 14.58,0 14.58,0 0.9280004,0 1.6800003,0.75199993 1.6800003,1.6799999 0,0.92799997 -0.7519999,1.6799999 -1.6800003,1.6799999 z"
                     id="path216" style="fill:#4056b4" fill-opacity="1" />

               </g>
            </g>
            <g transform="matrix(1.5,0,0,1.5,874.54004,-95.35849)" id="g226" style="opacity:1">
               <g id="g224" style="opacity:1">
                  <path
                     d="m -355.56,320.32401 c 0,0 -90.004,0 -90.004,0 -4.54901,0 -8.25,-3.70102 -8.25,-8.25101 0,0 0,-118.234 0,-118.234 0,-4.54901 3.70099,-8.25 8.25,-8.25 0,0 107.322,0 107.322,0 0.859,0 1.68301,0.28 2.38201,0.808 0.21399,0.167 0.37198,0.30899 0.517,0.463 0.021,0.022 0.083,0.097 0.103,0.121 0.11999,0.14099 0.23398,0.28301 0.33398,0.437 0.043,0.067 0.081,0.138 0.11701,0.20801 0.10901,0.19999 0.17099,0.31498 0.22,0.43599 0.046,0.113 0.082,0.233 0.11499,0.354 0,0 -0.95798,0.43201 -0.95798,0.43201 0,0 0.991,-0.32302 0.991,-0.32302 0.027,0.084 0.052,0.16701 0.069,0.25501 0,0 0,0 0,0 0.052,0.25999 0.079,0.52099 0.079,0.77701 0,0 0,10.90699 0,10.90699 0,2.189 -1.78098,3.969 -3.96899,3.969 0,0 -9.068,0 -9.068,0 0,0 0,107.64 0,107.64 0,4.54999 -3.70099,8.25101 -8.25,8.25101 z M -445.564,187.673 c -3.39999,0 -6.16601,2.766 -6.16601,6.166 0,0 0,118.234 0,118.234 0,3.39999 2.76602,6.16699 6.16601,6.16699 0,0 90.004,0 90.004,0 3.4,0 6.16699,-2.767 6.16699,-6.16699 0,0 0,-108.68199 0,-108.68199 0,-0.57502 0.465,-1.04201 1.04102,-1.04201 0,0 10.10999,0 10.10999,0 1.039,0 1.88501,-0.84599 1.88501,-1.885 0,0 0,-10.90699 0,-10.90699 0,-0.12101 -0.014,-0.24001 -0.036,-0.35501 -0.009,-0.03 -0.048,-0.159 -0.049,-0.161 -0.031,-0.10899 -0.039,-0.14999 -0.055,-0.18899 -0.019,-0.046 -0.045,-0.088 -0.068,-0.13001 0,0 -0.079,-0.147 -0.079,-0.147 -0.06,-0.101 -0.11698,-0.167 -0.17398,-0.232 -0.011,-0.014 -0.054,-0.066 -0.065,-0.08 -0.052,-0.056 -0.13101,-0.12399 -0.21398,-0.188 -0.35401,-0.26799 -0.74302,-0.402 -1.14502,-0.402 0,0 -107.322,0 -107.322,0 z"
                     id="path222" style="fill:#4056b4" fill-opacity="1" />

               </g>
            </g>
         </g>
         <g id="g266" style="opacity:1">
            <g transform="matrix(1.5,0,0,1.5,281.45499,262.552)" id="g234" style="opacity:1">
               <g id="g232" style="opacity:1">
                  <path
                     d="m 24.573,22.000999 c 0,0 -6.219,-9.964999 -6.219,-9.964999 -0.65,-1.042 -2.141001,-1.285 -3.329,-0.543 0,0 -5.6270002,3.512 -5.6270002,3.512 -1.1879998,0.741 -1.6239996,2.186 -0.974,3.228 0,0 0.5399999,0.866001 0.5399999,0.866001 -3.1219997,0.994999 -6.4589996,0.049 -8.06999971,-2.531 0,0 -14.41699999,-23.101001 -14.41699999,-23.101001 -1.611,-2.5810003 -0.994,-5.993 1.272,-8.361 0,0 0.862,1.381 0.862,1.381 0.65,1.042 2.1400004,1.284 3.3280001,0.543 0,0 5.6279998,-3.512 5.6279998,-3.512 1.1880001,-0.741 1.62400008,-2.185999 0.9740001,-3.227999 0,0 -6.219,-9.965 -6.219,-9.965 -0.6500001,-1.042 -2.1399998,-1.285 -3.328,-0.543001 0,0 -5.628001,3.512001 -5.628001,3.512001 C -17.822001,-25.965 -31.152,-17.646 -21.219,-1.73 c 0,0 14.417,23.101 14.417,23.101 8.8229999,14.137999 23.585001,8.112 24.773001,7.369999 0,0 5.626999,-3.511999 5.626999,-3.511999 1.187999,-0.742 1.625,-2.186001 0.975,-3.228001 z"
                     id="path230" style="fill:#ff6b0a" fill-opacity="1" />

               </g>
            </g>
            <g transform="matrix(1.5,0,0,1.5,310.517,290.30899)" id="g240" style="opacity:1">
               <g id="g238" style="opacity:1">
                  <path
                     d="m 5.198,3.4960001 c 0,0 -6.219,-9.965 -6.219,-9.965 -0.65,-1.0420003 -2.14,-1.2850003 -3.328,-0.5430002 0,0 -1.1500001,0.717 -1.1500001,0.717 0,0 8.573,13.737 8.573,13.737 C 3.0739999,7.4419999 4.224,6.724 4.224,6.724 5.4120002,5.9819999 5.848,4.5380001 5.198,3.4960001 Z"
                     id="path236" style="fill:#fededb" fill-opacity="1" />

               </g>
            </g>
            <g transform="matrix(1.5,0,0,1.5,271.47,227.743)" id="g246" style="opacity:1">
               <g id="g244" style="opacity:1">
                  <path
                     d="m 5.198,3.4949999 c 0,0 -6.219,-9.9639998 -6.219,-9.9639998 -0.65,-1.0420003 -2.14,-1.2850003 -3.328,-0.5440001 0,0 -1.1500001,0.7179999 -1.1500001,0.7179999 0,0 8.573,13.737 8.573,13.737 C 3.0739999,7.4419999 4.224,6.724 4.224,6.724 5.4120002,5.9819999 5.848,4.5370002 5.198,3.4949999 Z"
                     id="path242" style="fill:#fededb" fill-opacity="1" />

               </g>
            </g>
            <g transform="matrix(1.5,0,0,1.5,874.54047,-95.358002)" id="g252" style="opacity:1">
               <g id="g250" style="opacity:1">
                  <path
                     d="m -378.80801,268.293 c -0.96,0 -1.89798,-0.479 -2.443,-1.35199 0,0 0,0 0,0 0,0 -6.05899,-9.70801 -6.05899,-9.70801 -0.40701,-0.651 -0.535,-1.422 -0.362,-2.17 0.17301,-0.748 0.62699,-1.384 1.27799,-1.791 0,0 5.90201,-3.683 5.90201,-3.683 1.34301,-0.837 3.121,-0.428 3.95999,0.917 0,0 6.05902,9.70799 6.05902,9.70799 0.83899,1.345 0.42798,3.121 -0.91602,3.961 0,0 -5.90198,3.68402 -5.90198,3.68402 -0.47201,0.29401 -0.997,0.43399 -1.51702,0.43399 z m -1.59501,-1.88199 c 0.54703,0.87598 1.70502,1.14499 2.58201,0.59799 0,0 5.902,-3.68399 5.902,-3.68399 0.87601,-0.54699 1.14402,-1.70501 0.59702,-2.582 0,0 -6.05801,-9.70801 -6.05801,-9.70801 -0.547,-0.876 -1.706,-1.143 -2.58301,-0.596 0,0 -5.901,3.682 -5.901,3.682 -0.87699,0.547 -1.14399,1.705 -0.59699,2.582 0,0 6.05798,9.70801 6.05798,9.70801 z"
                     id="path248" style="fill:#ff6b0a" fill-opacity="1" />

               </g>
            </g>
            <g transform="matrix(1.5,0,0,1.5,874.53998,-95.358002)" id="g258" style="opacity:1">
               <g id="g256" style="opacity:1">
                  <path
                     d="m -404.83899,226.584 c -0.21802,0 -0.43701,-0.024 -0.65402,-0.075 -0.74799,-0.173 -1.384,-0.627 -1.78998,-1.279 0,0 -6.05902,-9.708 -6.05902,-9.708 -0.40698,-0.651 -0.535,-1.42199 -0.362,-2.16999 0.173,-0.74801 0.62701,-1.38401 1.27902,-1.79001 0,0 5.901,-3.68399 5.901,-3.68399 1.34598,-0.83701 3.12097,-0.42701 3.95999,0.91699 0,0 6.059,9.709 6.059,9.709 0.83901,1.34401 0.428,3.11999 -0.91599,3.96 0,0 -5.901,3.68399 -5.901,3.68399 -0.46201,0.28801 -0.98502,0.43601 -1.517,0.43601 z m -0.16601,-18.14 c -0.33899,0 -0.68201,0.092 -0.99,0.284 0,0 -5.89999,3.683 -5.89999,3.683 -0.42502,0.26499 -0.72101,0.679 -0.83401,1.166 -0.11301,0.487 -0.029,0.99 0.23599,1.415 0,0 6.05801,9.708 6.05801,9.708 0,0 0,0 0,0 0.26499,0.425 0.68,0.72101 1.168,0.834 0.48898,0.11599 0.98999,0.03 1.414,-0.236 0,0 5.90201,-3.684 5.90201,-3.684 0.87598,-0.547 1.14398,-1.704 0.59699,-2.581 0,0 -6.05799,-9.70899 -6.05799,-9.70899 C -403.767,208.756 -404.38,208.444 -405.005,208.444 Z"
                     id="path254" style="fill:#ff6b0a" fill-opacity="1" />

               </g>
            </g>
            <g transform="matrix(1.5,0,0,1.5,874.54004,-95.35849)" id="g264" style="opacity:1">
               <g id="g262" style="opacity:1">
                  <path
                     d="m -386.09601,269.755 c -5.30099,0 -11.811,-1.96701 -16.51999,-9.513 0,0 -14.41699,-23.1 -14.41699,-23.1 -5.302,-8.495 -3.957,-14.84799 -1.89401,-18.681 2.078,-3.86299 5.33499,-6.17101 6.63901,-6.985 0,0 5.62698,-3.512 5.62698,-3.512 0.67801,-0.423 1.46301,-0.587 2.211,-0.466 0.77301,0.12599 1.41501,0.541 1.807,1.16901 0,0 6.21802,9.96499 6.21802,9.96499 0.392,0.62799 0.483,1.387 0.25699,2.13601 -0.21899,0.72699 -0.71301,1.35899 -1.39099,1.78199 0,0 -5.62701,3.512 -5.62701,3.512 -1.41901,0.886 -3.22199,0.57 -4.017,-0.70301 0,0 -0.50601,-0.81099 -0.50601,-0.81099 -1.78498,2.206 -2.12,5.113 -0.779,7.262 0,0 14.417,23.1 14.417,23.1 1.341,2.14701 4.095,3.12299 6.86502,2.491 0,0 -0.18402,-0.29599 -0.18402,-0.29599 -0.79499,-1.27402 -0.28598,-3.031 1.134,-3.91801 0,0 5.62701,-3.512 5.62701,-3.512 0.677,-0.42199 1.46201,-0.58799 2.211,-0.46701 0.77301,0.12601 1.414,0.54201 1.806,1.17002 0,0 6.21899,9.96498 6.21899,9.96498 0.392,0.62701 0.48401,1.38601 0.25702,2.13601 -0.21902,0.72599 -0.71301,1.35801 -1.39001,1.78199 0,0 -5.62799,3.51202 -5.62799,3.51202 -1.047,0.65298 -4.58701,1.98099 -8.94202,1.98199 z M -404.935,208.459 c -0.40899,0 -0.824,0.12199 -1.19601,0.355 0,0 -5.62799,3.511 -5.62799,3.511 -1.236,0.77 -4.32199,2.959 -6.28699,6.611 -2.81702,5.23501 -2.19,11.182 1.862,17.676 0,0 14.41699,23.10101 14.41699,23.10101 8.92999,14.30698 23.94101,7.29898 24.08301,7.20999 0,0 5.62799,-3.51199 5.62799,-3.51199 0.47101,-0.29401 0.81299,-0.728 0.96201,-1.22101 0.14199,-0.47 0.089,-0.93799 -0.14801,-1.31799 0,0 0,0 0,0 0,0 -6.21799,-9.96501 -6.21799,-9.96501 -0.237,-0.38001 -0.63501,-0.633 -1.11902,-0.711 -0.509,-0.083 -1.048,0.033 -1.51999,0.32899 0,0 -5.62799,3.51101 -5.62799,3.51101 -0.952,0.594 -1.31702,1.73201 -0.815,2.53901 0,0 0.54098,0.866 0.54098,0.866 0.082,0.13098 0.098,0.29098 0.045,0.43698 -0.053,0.14502 -0.17002,0.25702 -0.318,0.30402 -3.40402,1.086 -6.961,-0.042 -8.64602,-2.74201 0,0 -14.417,-23.101 -14.417,-23.101 -1.68499,-2.701 -1.13598,-6.391 1.336,-8.972 0.10602,-0.112 0.25702,-0.162 0.41202,-0.152 0.15399,0.017 0.29199,0.102 0.37299,0.233 0,0 0.862,1.38099 0.862,1.38099 0.50299,0.80501 1.686,0.97901 2.638,0.38302 0,0 5.62799,-3.51201 5.62799,-3.51201 0.47201,-0.29399 0.81402,-0.72699 0.96301,-1.22 0.142,-0.471 0.089,-0.939 -0.14801,-1.319 0,0 -6.21899,-9.965 -6.21899,-9.965 -0.237,-0.379 -0.63501,-0.631 -1.11899,-0.71001 -0.107,-0.018 -0.215,-0.027 -0.32401,-0.027 z"
                     id="path260" style="fill:#ff6b0a" fill-opacity="1" />

               </g>
            </g>
         </g>
      </g>
      <g transform="matrix(1.0457084,2.4589115e-6,-2.4589115e-6,1.0457084,-16.011841,-13.351746)"
         style="display:block;opacity:1" id="g288">
         <g transform="matrix(0.44924086,0,0,0.44924086,284.711,337.634)" id="g274" style="opacity:1">
            <g id="g272" style="opacity:1">
               <path
                  d="m 11.704,1.0420001 c 0,0 -23.408,0 -23.408,0 -0.576,0 -1.042,-0.46700011 -1.042,-1.0420001 0,-0.57499999 0.466,-1.0420001 1.042,-1.0420001 0,0 23.408,0 23.408,0 0.576,0 1.042,0.46700011 1.042,1.0420001 0,0.57499999 -0.466,1.0420001 -1.042,1.0420001 z"
                  id="path270" style="fill:#4056b4" fill-opacity="1" />

            </g>
         </g>
         <g transform="matrix(0.44924086,0,0,0.44924086,284.27399,348.806)" id="g280" style="opacity:1">
            <g id="g278" style="opacity:1">
               <path
                  d="m 22.281,1.0420001 c 0,0 -44.562,0 -44.562,0 -0.576,0 -1.041001,-0.46700011 -1.041001,-1.0420001 0,-0.57499999 0.465001,-1.0420001 1.041001,-1.0420001 0,0 44.562,0 44.562,0 0.576,0 1.041001,0.46700011 1.041001,1.0420001 0,0.57499999 -0.465001,1.0420001 -1.041001,1.0420001 z"
                  id="path276" style="fill:#4056b4" fill-opacity="1" />

            </g>
         </g>
         <g transform="matrix(0.44924086,0,0,0.44924086,284.711,359.98001)" id="g286" style="opacity:1">
            <g id="g284" style="opacity:1">
               <path
                  d="m 11.704,1.0420001 c 0,0 -23.408,0 -23.408,0 -0.576,0 -1.042,-0.46700011 -1.042,-1.0420001 0,-0.57499999 0.466,-1.0420001 1.042,-1.0420001 0,0 23.408,0 23.408,0 0.576,0 1.042,0.46700011 1.042,1.0420001 0,0.57499999 -0.466,1.0420001 -1.042,1.0420001 z"
                  id="path282" style="fill:#4056b4" fill-opacity="1" />

            </g>
         </g>
      </g>
   </g>
</svg>