<svg xmlns="http://www.w3.org/2000/svg" viewBox="0 0 157.48 38.100001">
   <g>
      <g>
         <path fill="#4056b4"
            d="M54.3,10.5C50.4,11.6,46,16,44.9,20c-0.2,0.9-0.5,3.5-0.5,5.7v4.1h-8.3c-8.2,0-8.3,0-9.7,1.2c-1.8,1.5-2.3,3.7-1.2,5.7c1.3,2.5,2.6,2.8,11.3,2.8h7.8v9.9v9.9h-8.3c-8.2,0-8.3,0-9.7,1.2c-1.8,1.5-2.3,3.7-1.2,5.7c1.3,2.5,2.6,2.8,11.3,2.8h7.8v9.9v9.9h-8.3c-8.2,0-8.3,0-9.7,1.2c-1.8,1.5-2.3,3.7-1.2,5.7c1.3,2.5,2.6,2.8,11.3,2.8h7.8v9.9v9.9h-8.3h-8.3l-1.4,1.2c-2.6,2.4-1.9,6.8,1.2,8c0.6,0.3,4.7,0.5,9,0.5h7.8v9.9v9.9h-8.3h-8.3l-1.4,1.2c-2.6,2.4-1.9,6.8,1.2,8c0.6,0.3,4.7,0.5,9,0.5h7.8v9.9v9.9h-8.3h-8.3l-1.4,1.2c-2.6,2.3-1.9,6.8,1.2,8c0.6,0.3,4.7,0.5,9,0.5h7.8v9.9v9.9h-8.3h-8.3l-1.4,1.2c-2.6,2.4-1.9,6.8,1.2,8c0.6,0.3,4.7,0.5,8.9,0.5h7.8l0.1,9.8c0.1,9.2,0.2,10,1.2,11.8c1.5,2.9,3.4,4.9,6.2,6.4l2.4,1.3l82.8,0.1c74.7,0.1,83,0,84.9-0.6c3-1,6.9-4.6,8.2-7.5l1-2.3V128V20.5l-1-2.3c-1.2-2.9-5.2-6.5-8.1-7.5c-2-0.6-10.1-0.7-84.3-0.7C90.2,10,55.2,10.2,54.3,10.5z M221.1,20.6c0.3,0.4,0.5,40.9,0.5,107.4c0,66.5-0.2,107-0.5,107.4c-0.6,1-164.4,1.3-165.8,0.3c-0.9-0.6-0.9-1.3-1.1-9.9l-0.1-9.3h3.5c3.7,0,5-0.4,6.3-2c1.2-1.5,1.1-4.6-0.3-6.1c-1-1.2-1.4-1.3-5.2-1.5l-4.1-0.2l-0.1-9.8l-0.1-9.8h3.5c3.7,0,5-0.4,6.3-2c1.2-1.5,1.1-4.6-0.3-6.1c-1-1.2-1.4-1.3-5.2-1.5l-4.1-0.2l-0.1-9.8l-0.1-9.8h3.5c3.7,0,5-0.4,6.3-2c1.2-1.5,1.1-4.6-0.3-6.1c-1-1.2-1.4-1.3-5.2-1.5l-4.1-0.2l-0.1-9.8l-0.1-9.8h3.5c3.7,0,5-0.4,6.3-2c1.2-1.5,1.1-4.6-0.3-6.1c-1-1.2-1.4-1.3-5.2-1.5l-4.1-0.2l-0.1-9.8l-0.1-9.8h3.5c3.7,0,5-0.4,6.3-2c1.2-1.5,1.1-4.6-0.3-6.1c-1-1.2-1.4-1.3-5.2-1.5l-4.1-0.2l-0.1-9.8L54.2,69h3.5c3.7,0,5-0.4,6.3-2c1.2-1.5,1.1-4.6-0.3-6.1c-1-1.2-1.4-1.3-5.2-1.5l-4.1-0.2l-0.1-9.8l-0.1-9.8h3.5c3.7,0,5-0.4,6.3-2c1.2-1.5,1.1-4.6-0.3-6.1c-1-1.2-1.4-1.3-5.2-1.5l-4.1-0.2v-4.3c0-3.7,0.1-4.4,0.9-5C56.7,19.3,220.4,19.6,221.1,20.6z" />
         <path fill="#4056b4"
            d="M128.9,62c-9.2,3-12.8,5-17.1,9.3c-6.2,6.2-8.3,11.7-8.6,23.1c-0.5,13,2.1,26.7,8.7,46.6c10.7,32.5,23.8,51.1,38.3,54.5c4.5,1,10.1,0.9,15.2-0.4c4.8-1.2,12.3-3.9,14.1-5.1c1.2-0.8,3.4-4.9,3.4-6.5c0-0.5-2.8-9.4-6.3-19.7c-7-21-6.9-20.9-11.6-22c-2.2-0.6-2.6-0.5-7.9,1.2c-6.5,2.1-5.9,2.3-8.5-3c-3.4-6.9-6.6-17.6-7.1-24.2l-0.2-3.5l4.7-1.5c2.6-0.8,5.4-1.9,6.2-2.4c1.8-1.1,3.4-4.3,3.4-6.7c0-2.3-11.8-38.1-13-39.7c-1.2-1.5-3.5-2.5-5.5-2.5C136.2,59.8,132.5,60.8,128.9,62z M140.5,85.6c2.8,8.4,4.9,15.3,4.8,15.4c-0.1,0-2.3,0.7-4.8,1.6c-5.6,1.8-7,3.1-8.3,7.7c-2.9,10.7,6.2,36.8,15,42.6c2.9,2,4.3,2.1,9,0.6c2.3-0.7,4.6-1.3,5.1-1.4c0.8-0.2,1.4,1.2,5.9,14.7c2.7,8.2,4.9,15.1,4.9,15.4c0,0.3-2.4,1.3-5.2,2.3c-4.7,1.6-5.7,1.8-10.1,1.8c-4.6,0-5-0.1-8.1-1.6c-9.8-4.9-18.7-19.6-27.3-45.4c-10.9-32.5-12-51.5-3.5-60.7c1.2-1.3,3.1-2.9,4.2-3.5c2-1.2,11.3-4.7,12.5-4.7C135.4,70.4,136.9,74.5,140.5,85.6z" />
      </g>
      <text id="text833" y="285.98212" x="46.852219"
         style="font-style:normal;font-weight:normal;font-size:5.78070211px;line-height:125%;font-family:sans-serif;letter-spacing:0px;word-spacing:0px;fill:#4056b4;fill-opacity:1;stroke:#4056b4;stroke-width:0.26458332px;stroke-linecap:butt;stroke-linejoin:miter;stroke-opacity:1"
         xml:space="preserve" transform="scale(0.99979785,1.0002022)">
         <tspan
            style="font-style:italic;font-variant:normal;font-weight:normal;font-stretch:normal;font-size:19.26900673px;font-family:'Ink Free';-inkscape-font-specification:'Ink Free Italic';fill:#4056b4;fill-opacity:1;stroke:#4056b4;stroke-width:0.26458332px;stroke-opacity:1"
            y="285.98212" x="46.852219" id="tspan831">Phonebook </tspan>
      </text>
   </g>
</svg>